<svg width="31" height="27" viewBox="0 0 31 27" fill="none" xmlns="http://www.w3.org/2000/svg">
<path fill-rule="evenodd" clip-rule="evenodd" d="M28.6441 0.00123155C28.6606 0.000410676 28.6771 0 28.6937 0C29.462 0 30.1926 0.360736 30.6232 1.07233C31.0349 1.75268 31.092 2.61495 30.8771 3.52103L26.5067 24.6873C26.5066 24.6879 26.5065 24.6884 26.5064 24.689C26.328 25.5663 25.9222 26.4186 25.0841 26.8073C24.24 27.1988 23.3441 26.9419 22.615 26.5241C22.5778 26.5027 22.5419 26.479 22.5077 26.453L12.0776 18.5377C11.9117 18.4136 11.7788 18.253 11.6876 18.0705C11.5952 17.8854 11.5476 17.6819 11.5476 17.4765C11.5476 17.2712 11.5952 17.0676 11.6876 16.8825C11.769 16.7196 11.8837 16.5742 12.0254 16.4565L18.5688 10.3846L9.31502 16.3837C9.1435 16.4968 8.94769 16.5701 8.74183 16.5965C8.53769 16.6228 8.33077 16.6019 8.13652 16.5362L1.73429 14.4558C1.29337 14.3225 0.868699 14.1188 0.544505 13.809C0.199007 13.4788 -0.0496369 13.0016 0.00818374 12.4335C0.0622042 11.9028 0.365538 11.4852 0.695729 11.187C1.0318 10.8835 1.47073 10.6322 1.97488 10.4255L1.98582 10.421L1.98585 10.4211L27.6415 0.252638C27.9559 0.104185 28.2963 0.0185102 28.6441 0.00123155ZM24.6252 6.50478C24.6251 6.50495 24.6221 6.50546 24.6165 6.50582C24.6224 6.50478 24.6252 6.50461 24.6252 6.50478ZM24.0591 5.2901C24.0672 5.28041 24.0724 5.27556 24.0729 5.27555C24.0735 5.27555 24.0695 5.2804 24.0591 5.2901ZM28.7177 2.00055C28.6379 2.00769 28.5592 2.02964 28.4852 2.06609C28.4611 2.07798 28.4365 2.08889 28.4115 2.0988L2.72856 12.278C2.52159 12.3632 2.36292 12.4457 2.24408 12.5194C2.26768 12.5273 2.29282 12.5354 2.31958 12.5434L2.34195 12.5503L8.47648 14.5438L23.3444 4.9053L23.358 4.89658C23.6285 4.7274 23.9137 4.61033 24.1931 4.55099C24.4531 4.4958 24.7888 4.47412 25.117 4.59005C25.2877 4.65034 25.4983 4.76376 25.6685 4.97286C25.8506 5.19657 25.9394 5.47371 25.9282 5.75488C25.9085 6.24744 25.6004 6.59088 25.4043 6.77021L13.921 17.4259L23.6615 24.8179C23.8684 24.9307 24.0198 24.9781 24.1184 24.9936C24.1695 25.0017 24.2016 25.0005 24.2184 24.9986C24.2341 24.9968 24.2405 24.9939 24.2427 24.9929C24.245 24.9918 24.2534 24.9878 24.2684 24.9738C24.2842 24.9591 24.3101 24.9305 24.3418 24.8792C24.4076 24.7727 24.4862 24.5876 24.5467 24.2895L24.5474 24.2862L28.9216 3.10152C28.9238 3.09089 28.9261 3.08029 28.9287 3.06974C29.0697 2.48369 28.9682 2.20051 28.9121 2.10773C28.875 2.04637 28.826 2.00568 28.7177 2.00055ZM8.20999 14.7167C8.2127 14.7148 8.21542 14.713 8.21816 14.7113L8.20999 14.7167ZM8.77001 14.6392C8.77481 14.6408 8.77959 14.6424 8.78436 14.6441L8.77001 14.6392ZM1.96756 12.7449C1.96749 12.7449 1.96813 12.7437 1.96968 12.7415C1.96841 12.7438 1.96763 12.7449 1.96756 12.7449Z" fill="white"/>
</svg>
