<svg width="74" height="74" viewBox="0 0 74 74" fill="none" xmlns="http://www.w3.org/2000/svg">
<g filter="url(#filter0_d_29_129)">
<path fill-rule="evenodd" clip-rule="evenodd" d="M24.0729 6.70848C24.2339 6.93282 24.1826 7.24521 23.9582 7.40623C22.9692 8.11614 22.1679 9.05614 21.6234 10.1451C21.0789 11.234 20.8078 12.4391 20.8332 13.6562C20.8334 13.6632 20.8334 13.6702 20.8332 13.6772C20.8078 14.8944 21.0789 16.0994 21.6234 17.1883C22.1679 18.2773 22.9692 19.2173 23.9582 19.9272C24.1826 20.0882 24.2339 20.4006 24.0729 20.6249C23.9119 20.8493 23.5995 20.9006 23.3751 20.7396C22.2542 19.935 21.346 18.8697 20.729 17.6356C20.1135 16.4046 19.8061 15.0426 19.8333 13.6667C19.8061 12.2908 20.1135 10.9288 20.729 9.69784C21.346 8.46374 22.2542 7.3984 23.3751 6.59384C23.5995 6.43282 23.9119 6.48415 24.0729 6.70848ZM37.4062 6.70848C37.5672 6.93282 37.5159 7.24521 37.2916 7.40623C36.3025 8.11614 35.5012 9.05614 34.9567 10.1451C34.4123 11.234 34.1411 12.4391 34.1666 13.6562C34.1667 13.6632 34.1667 13.6702 34.1666 13.6772C34.1411 14.8944 34.4123 16.0994 34.9567 17.1883C35.5012 18.2773 36.3025 19.2173 37.2916 19.9272C37.5159 20.0882 37.5672 20.4006 37.4062 20.6249C37.2452 20.8493 36.9328 20.9006 36.7085 20.7396C35.5876 19.935 34.6794 18.8697 34.0623 17.6356C33.4468 16.4046 33.1395 15.0426 33.1666 13.6667C33.1395 12.2908 33.4468 10.9288 34.0623 9.69784C34.6794 8.46374 35.5876 7.3984 36.7085 6.59384C36.9328 6.43282 37.2452 6.48415 37.4062 6.70848ZM41.994 40.8333C37.3326 40.7776 33.2951 42.008 30.6393 44.0622C27.7629 46.287 23.4895 47.5566 18.6667 47.5001C13.8439 47.5566 9.57047 46.287 6.69411 44.0622C6.47568 43.8932 6.43558 43.5792 6.60453 43.3608C6.77348 43.1424 7.08751 43.1023 7.30594 43.2712C9.96172 45.3254 13.9993 46.5558 18.6607 46.5001L18.6727 46.4999L18.6727 46.5001C23.3341 46.5558 27.3717 45.3254 30.0274 43.2712C32.9038 41.0464 37.1772 39.7768 42 39.8333C46.8228 39.7768 51.0962 41.0464 53.9726 43.2712C54.191 43.4402 54.2311 43.7542 54.0622 43.9726C53.8932 44.191 53.5792 44.2312 53.3608 44.0622C50.705 42.008 46.6674 40.7776 42.006 40.8333L41.994 40.8335V40.8333Z" fill="#F5F5F5"/>
<path fill-rule="evenodd" clip-rule="evenodd" d="M6.5 30.3334C6.5 30.0572 6.72386 29.8334 7 29.8334H53.6667C53.9428 29.8334 54.1667 30.0572 54.1667 30.3334V47C54.1667 52.437 52.0069 57.6512 48.1624 61.4957C44.3179 65.3402 39.1036 67.5 33.6667 67.5H27C21.5631 67.5 16.3488 65.3402 12.5043 61.4957C8.65982 57.6512 6.5 52.437 6.5 47V30.3334ZM7.5 30.8334V47C7.5 52.1718 9.55446 57.1317 13.2114 60.7886C16.8684 64.4456 21.8283 66.5 27 66.5H33.6667C38.8384 66.5 43.7983 64.4456 47.4552 60.7886C51.1122 57.1317 53.1667 52.1718 53.1667 47V30.8334H7.5Z" fill="#F5F5F5"/>
<path fill-rule="evenodd" clip-rule="evenodd" d="M53.4934 33.7653C55.115 33.1922 56.8526 33.0263 58.5534 33.282C60.2542 33.5378 61.8662 34.2074 63.2476 35.2321C64.6289 36.2568 65.7375 37.6051 66.4757 39.1585C67.2139 40.712 67.5592 42.423 67.4813 44.1411C67.4033 45.8593 66.9045 47.532 66.0287 49.0122C65.1528 50.4924 63.9268 51.7348 62.4583 52.6302C60.9898 53.5256 59.3239 54.0466 57.6069 54.1473C55.8899 54.248 54.1745 53.9254 52.6114 53.2078C52.3604 53.0926 52.2504 52.7958 52.3656 52.5448C52.4808 52.2938 52.7776 52.1838 53.0286 52.299C54.4428 52.9482 55.9949 53.2401 57.5483 53.149C59.1018 53.0579 60.6091 52.5865 61.9377 51.7764C63.2663 50.9663 64.3756 49.8422 65.168 48.503C65.9605 47.1637 66.4118 45.6503 66.4823 44.0958C66.5528 42.5413 66.2404 40.9932 65.5725 39.5877C64.9046 38.1822 63.9016 36.9623 62.6518 36.0353C61.402 35.1082 59.9436 34.5023 58.4047 34.2709C56.8659 34.0395 55.2938 34.1897 53.8266 34.7082C53.5662 34.8002 53.2806 34.6637 53.1886 34.4033C53.0966 34.143 53.233 33.8573 53.4934 33.7653Z" fill="#F5F5F5"/>
</g>
<defs>
<filter id="filter0_d_29_129" x="0.5" y="0.5" width="72.9921" height="73" filterUnits="userSpaceOnUse" color-interpolation-filters="sRGB">
<feFlood flood-opacity="0" result="BackgroundImageFix"/>
<feColorMatrix in="SourceAlpha" type="matrix" values="0 0 0 0 0 0 0 0 0 0 0 0 0 0 0 0 0 0 127 0" result="hardAlpha"/>
<feOffset/>
<feGaussianBlur stdDeviation="3"/>
<feComposite in2="hardAlpha" operator="out"/>
<feColorMatrix type="matrix" values="0 0 0 0 0.737255 0 0 0 0 0.741176 0 0 0 0 0.752941 0 0 0 0.8 0"/>
<feBlend mode="normal" in2="BackgroundImageFix" result="effect1_dropShadow_29_129"/>
<feBlend mode="normal" in="SourceGraphic" in2="effect1_dropShadow_29_129" result="shape"/>
</filter>
</defs>
</svg>
