<svg width="74" height="67" viewBox="0 0 74 67" fill="none" xmlns="http://www.w3.org/2000/svg">
<g filter="url(#filter0_d_25_59)">
<path fill-rule="evenodd" clip-rule="evenodd" d="M25.3815 7.59121C23.1623 7.35447 20.9181 7.5798 18.7902 8.25301C16.6623 8.92621 14.6969 10.0327 13.0176 11.5028C11.3384 12.9729 9.98174 14.7748 9.0331 16.795C8.08446 18.8152 7.56437 21.0099 7.50561 23.241C7.44684 25.472 7.85065 27.6911 8.69163 29.7584C9.5326 31.8257 10.7925 33.6965 12.392 35.253L12.3952 35.2561L37.0433 59.6676L61.6915 35.2561C61.7206 35.2273 61.7524 35.2027 61.786 35.1825C63.329 33.6422 64.5449 31.8052 65.36 29.782C66.1914 27.7183 66.5878 25.5052 66.5246 23.2813C66.4613 21.0573 65.9397 18.8703 64.9923 16.8572C64.045 14.8441 62.6923 13.0482 61.019 11.582C59.3456 10.1157 57.3877 9.01056 55.2676 8.33578C53.1475 7.661 50.911 7.43109 48.698 7.66043C46.485 7.88977 44.3431 8.57342 42.4064 9.6686C40.4698 10.7638 38.78 12.2469 37.443 14.0252C37.3482 14.1512 37.1996 14.2251 37.0419 14.2247C36.8843 14.2242 36.7361 14.1495 36.642 14.0229C35.3107 12.2317 33.6229 10.7355 31.6849 9.62855C29.7469 8.52162 27.6007 7.82794 25.3815 7.59121ZM62.3007 36.0601L37.3952 60.7266C37.2003 60.9196 36.8863 60.9196 36.6915 60.7266L11.6946 35.9697L11.693 35.9681C9.99533 34.3157 8.65805 32.3297 7.76534 30.1352C6.87234 27.94 6.44355 25.5837 6.50595 23.2146C6.56836 20.8456 7.12061 18.5151 8.12793 16.37C9.13525 14.2248 10.5758 12.3115 12.3589 10.7504C14.142 9.18937 16.229 8.01443 18.4885 7.29958C20.748 6.58474 23.1311 6.34547 25.4876 6.59685C27.8441 6.84823 30.123 7.58481 32.1809 8.76021C34.0497 9.82765 35.6995 11.236 37.0456 12.9103C38.3964 11.2492 40.0472 9.85392 41.9142 8.79815C43.9706 7.63522 46.245 6.90928 48.5949 6.66575C50.9448 6.42223 53.3197 6.66637 55.5709 7.38288C57.8221 8.0994 59.9012 9.27287 61.678 10.8299C63.4549 12.3868 64.8912 14.2938 65.8971 16.4314C66.9031 18.5691 67.457 20.8913 67.5241 23.2528C67.5913 25.6144 67.1703 27.9643 66.2875 30.1557C65.4048 32.347 64.0791 34.3326 62.3937 35.9881C62.365 36.0163 62.3337 36.0403 62.3007 36.0601Z" fill="#F5F5F5"/>
<path fill-rule="evenodd" clip-rule="evenodd" d="M37.3969 13.3512C37.5921 13.5464 37.5921 13.863 37.3969 14.0583L26.4203 25.0349C26.4202 25.0349 26.4203 25.0349 26.4203 25.0349C25.8891 25.5662 25.5907 26.2868 25.5907 27.038C25.5907 27.7893 25.8891 28.5098 26.4202 29.0412C26.4202 29.0412 26.4202 29.0411 26.4202 29.0412L28.2302 30.8512C30.3349 32.9559 33.7517 32.9559 35.8564 30.8512L39.1898 27.5178C41.2727 25.435 44.0977 24.2648 47.0433 24.2648C49.989 24.2648 52.814 25.4349 54.8969 27.5178L62.3969 35.0178C62.5921 35.2131 62.5921 35.5297 62.3969 35.7249C62.2016 35.9202 61.885 35.9202 61.6898 35.7249L54.1898 28.2249C52.2944 26.3296 49.7238 25.2648 47.0433 25.2648C44.3629 25.2648 41.7922 26.3296 39.8969 28.2249L36.5635 31.5583C34.0683 34.0535 30.0184 34.0535 27.5231 31.5583L25.7131 29.7483C24.9945 29.0294 24.5907 28.0545 24.5907 27.038C24.5907 26.0216 24.9944 25.0467 25.713 24.3279L36.6898 13.3512C36.885 13.1559 37.2016 13.1559 37.3969 13.3512ZM46.6898 37.3916C46.4945 37.1963 46.4945 36.8798 46.6898 36.6845C46.885 36.4892 47.2016 36.4892 47.3969 36.6845L54.0635 43.3512C54.2588 43.5464 54.2588 43.863 54.0635 44.0583C53.8683 44.2535 53.5517 44.2535 53.3564 44.0583L46.6898 37.3916ZM38.3564 45.0178C38.5517 44.8226 38.8683 44.8226 39.0635 45.0178L45.7302 51.6845C45.9255 51.8798 45.9255 52.1963 45.7302 52.3916C45.5349 52.5869 45.2184 52.5869 45.0231 52.3916L38.3564 45.7249C38.1612 45.5297 38.1612 45.2131 38.3564 45.0178Z" fill="#F5F5F5"/>
</g>
<defs>
<filter id="filter0_d_25_59" x="0.5" y="0.5" width="73.0311" height="66.3713" filterUnits="userSpaceOnUse" color-interpolation-filters="sRGB">
<feFlood flood-opacity="0" result="BackgroundImageFix"/>
<feColorMatrix in="SourceAlpha" type="matrix" values="0 0 0 0 0 0 0 0 0 0 0 0 0 0 0 0 0 0 127 0" result="hardAlpha"/>
<feOffset/>
<feGaussianBlur stdDeviation="3"/>
<feComposite in2="hardAlpha" operator="out"/>
<feColorMatrix type="matrix" values="0 0 0 0 1 0 0 0 0 1 0 0 0 0 1 0 0 0 0.8 0"/>
<feBlend mode="normal" in2="BackgroundImageFix" result="effect1_dropShadow_25_59"/>
<feBlend mode="normal" in="SourceGraphic" in2="effect1_dropShadow_25_59" result="shape"/>
</filter>
</defs>
</svg>
