<svg width="30" height="30" viewBox="0 0 30 30" fill="none" xmlns="http://www.w3.org/2000/svg">
<path fill-rule="evenodd" clip-rule="evenodd" d="M15.0031 4.03609e-05V0L14.9938 2.8738e-05C12.7706 0.00687662 10.5765 0.505216 8.56948 1.45918C6.56249 2.41314 4.79252 3.79899 3.38697 5.51699C1.98142 7.23499 0.975253 9.24239 0.440888 11.3947C-0.0934769 13.547 -0.142746 15.7908 0.296626 17.9643C0.735998 20.1379 1.65308 22.1873 2.98187 23.9651C4.31066 25.7428 6.0181 27.2046 7.98129 28.2453C9.94448 29.2859 12.1146 29.8796 14.3354 29.9835C16.5563 30.0874 18.7726 29.699 20.8248 28.8462C21.3725 28.6186 21.6315 27.9914 21.4033 27.4451C21.1751 26.8989 20.5462 26.6406 19.9985 26.8682C18.2394 27.5992 16.3397 27.9321 14.4361 27.843C12.5325 27.7539 10.6725 27.2451 8.98972 26.3531C7.30698 25.4611 5.84346 24.2081 4.7045 22.6843C3.56554 21.1606 2.77947 19.4039 2.40286 17.5409C2.02626 15.6778 2.06849 13.7546 2.52652 11.9098C2.98454 10.0649 3.84697 8.34427 5.05173 6.8717C6.25649 5.39913 7.7736 4.21126 9.49388 3.39358C11.2128 2.57656 13.0917 2.14944 14.9958 2.14289C17.2651 2.15634 19.4919 2.75816 21.4575 3.88928C23.4245 5.02117 25.0622 6.64413 26.2097 8.59857L26.2096 8.59863L26.2178 8.61212C29.0512 13.2792 27.7031 17.0288 25.9079 18.7659C24.9564 19.6867 24.0365 19.9215 23.5326 19.8052C23.3151 19.755 23.1206 19.6339 22.9592 19.3714C22.7843 19.0869 22.6247 18.5913 22.6247 17.7858V15C22.6247 14.9966 22.6247 14.9931 22.6247 14.9896C22.6234 13.9977 22.4249 13.0157 22.0405 12.1007C21.6548 11.1825 21.0896 10.3501 20.378 9.65202C19.6663 8.95392 18.8224 8.4041 17.8955 8.03463C16.9686 7.66515 15.9773 7.48341 14.9792 7.50001C13.4974 7.52464 12.056 7.98536 10.8359 8.8243C9.61586 9.66324 8.67151 10.843 8.1215 12.2154C7.57149 13.5879 7.44033 15.0918 7.7445 16.5383C8.04867 17.9848 8.77459 19.3095 9.83112 20.3459C10.8877 21.3824 12.2277 22.0844 13.6829 22.3638C15.1382 22.6432 16.6437 22.4875 18.0106 21.9164C19.0989 21.4616 20.0606 20.7596 20.8217 19.8712C20.9071 20.0915 21.0089 20.2986 21.1275 20.4916C21.5848 21.2353 22.2603 21.7111 23.0483 21.8929C24.5553 22.2407 26.1883 21.4803 27.4041 20.3038C29.9428 17.8473 31.3877 12.9963 28.0599 7.50896C26.7241 5.23664 24.819 3.34965 22.5313 2.03322C20.2413 0.715461 17.6469 0.0147712 15.0031 4.03609e-05ZM15.015 9.64257C15.7279 9.63072 16.436 9.76053 17.0981 10.0244C17.7602 10.2884 18.3629 10.6811 18.8713 11.1797C19.3796 11.6784 19.7833 12.2729 20.0588 12.9288C20.3343 13.5846 20.4762 14.2886 20.4761 14.9997C20.4759 16.0554 20.163 17.0876 19.5766 17.9665C18.9903 18.8454 18.1566 19.532 17.1803 19.94C16.204 20.3479 15.1286 20.4591 14.0891 20.2595C13.0496 20.06 12.0925 19.5585 11.3378 18.8182C10.5831 18.0779 10.0646 17.1317 9.84737 16.0985C9.63011 15.0653 9.72379 13.991 10.1167 13.0107C10.5095 12.0304 11.1841 11.1877 12.0555 10.5885C12.927 9.98925 13.9566 9.66016 15.015 9.64257Z" fill="white"/>
</svg>
