<svg width="74" height="74" viewBox="0 0 74 74" fill="none" xmlns="http://www.w3.org/2000/svg">
<g filter="url(#filter0_d_25_43)">
<path fill-rule="evenodd" clip-rule="evenodd" d="M12.5043 32.5043C16.3488 28.6598 21.5631 26.5 27 26.5C32.4369 26.5 37.6512 28.6598 41.4957 32.5043C45.3402 36.3488 47.5 41.5631 47.5 47C47.5 52.4369 45.3402 57.6512 41.4957 61.4957C37.6512 65.3402 32.4369 67.5 27 67.5C21.5631 67.5 16.3488 65.3402 12.5043 61.4957C8.65982 57.6512 6.5 52.4369 6.5 47C6.5 41.5631 8.65982 36.3488 12.5043 32.5043ZM27 27.5C21.8283 27.5 16.8684 29.5545 13.2114 33.2114C9.55446 36.8684 7.5 41.8283 7.5 47C7.5 52.1717 9.55446 57.1316 13.2114 60.7886C16.8684 64.4455 21.8283 66.5 27 66.5C32.1717 66.5 37.1316 64.4455 40.7886 60.7886C44.4455 57.1316 46.5 52.1717 46.5 47C46.5 41.8283 44.4455 36.8684 40.7886 33.2114C37.1316 29.5545 32.1717 27.5 27 27.5Z" fill="#F5F5F5"/>
</g>
<g filter="url(#filter1_d_25_43)">
<path fill-rule="evenodd" clip-rule="evenodd" d="M57.9085 6.92267C58.6792 6.64558 59.4987 6.5 60.3333 6.5C62.2341 6.5 64.0569 7.25506 65.4009 8.59907C66.7449 9.94308 67.5 11.7659 67.5 13.6667C67.5 14.6213 67.3096 15.5562 66.9497 16.4208C66.9407 16.4736 66.923 16.5258 66.8959 16.5755L66.8148 16.7248C66.6984 16.9715 66.5678 17.2117 66.4236 17.4442L44.8326 57.1555C44.7007 57.3981 44.3971 57.4878 44.1545 57.3559C43.9119 57.224 43.8222 56.9204 43.9541 56.6778L63.9872 19.832C62.8903 20.482 61.6299 20.8333 60.3333 20.8333C58.4326 20.8333 56.6098 20.0783 55.2657 18.7343C53.9217 17.3903 53.1667 15.5674 53.1667 13.6667C53.1667 12.3962 53.504 11.1605 54.1291 10.0793L17.5019 29.9594C17.2592 30.0912 16.9556 30.0012 16.8239 29.7585C16.6922 29.5158 16.7821 29.2123 17.0248 29.0806L56.1671 7.83537C56.6476 7.49205 57.1673 7.21053 57.7136 6.99597L57.7482 6.97722C57.7996 6.94929 57.8538 6.93133 57.9085 6.92267ZM56.7004 8.68373L58.1345 7.90536C58.83 7.63988 59.5745 7.5 60.3333 7.5C61.9688 7.5 63.5374 8.1497 64.6938 9.30617C65.8503 10.4626 66.5 12.0312 66.5 13.6667C66.5 14.576 66.2992 15.4646 65.9221 16.2732L65.5593 16.9405C65.3146 17.3311 65.025 17.696 64.6938 18.0272C63.5374 19.1836 61.9688 19.8333 60.3333 19.8333C58.6978 19.8333 57.1293 19.1836 55.9729 18.0272C54.8164 16.8707 54.1667 15.3022 54.1667 13.6667C54.1667 12.0312 54.8164 10.4626 55.9729 9.30617C56.2003 9.07873 56.4437 8.87088 56.7004 8.68373ZM21.9324 41.9324C23.2764 40.5884 25.0993 39.8333 27 39.8333C28.9007 39.8333 30.7236 40.5884 32.0676 41.9324C33.4116 43.2764 34.1667 45.0993 34.1667 47C34.1667 48.9007 33.4116 50.7236 32.0676 52.0676C30.7236 53.4116 28.9007 54.1667 27 54.1667C25.0993 54.1667 23.2764 53.4116 21.9324 52.0676C20.5884 50.7236 19.8333 48.9007 19.8333 47C19.8333 45.0993 20.5884 43.2764 21.9324 41.9324ZM27 40.8333C25.3645 40.8333 23.796 41.483 22.6395 42.6395C21.483 43.796 20.8333 45.3645 20.8333 47C20.8333 48.6355 21.483 50.204 22.6395 51.3605C23.796 52.517 25.3645 53.1667 27 53.1667C28.6355 53.1667 30.204 52.517 31.3605 51.3605C32.517 50.204 33.1667 48.6355 33.1667 47C33.1667 45.3645 32.517 43.796 31.3605 42.6395C30.204 41.483 28.6355 40.8333 27 40.8333Z" fill="#F5F5F5"/>
</g>
<g filter="url(#filter2_d_25_43)">
<path fill-rule="evenodd" clip-rule="evenodd" d="M21.9324 41.9324C23.2764 40.5884 25.0993 39.8334 27 39.8334C28.9007 39.8334 30.7236 40.5884 32.0676 41.9324C33.4116 43.2765 34.1666 45.0993 34.1666 47C34.1666 48.9008 33.4116 50.7236 32.0676 52.0676C30.7236 53.4116 28.9007 54.1667 27 54.1667C25.0993 54.1667 23.2764 53.4116 21.9324 52.0676C20.5884 50.7236 19.8333 48.9008 19.8333 47C19.8333 45.0993 20.5884 43.2765 21.9324 41.9324ZM27 40.8334C25.3645 40.8334 23.796 41.4831 22.6395 42.6396C21.483 43.796 20.8333 45.3645 20.8333 47C20.8333 48.6355 21.483 50.2041 22.6395 51.3605C23.796 52.517 25.3645 53.1667 27 53.1667C28.6355 53.1667 30.204 52.517 31.3605 51.3605C32.5169 50.2041 33.1666 48.6355 33.1666 47C33.1666 45.3645 32.5169 43.796 31.3605 42.6396C30.204 41.4831 28.6355 40.8334 27 40.8334Z" fill="#F5F5F5"/>
</g>
<defs>
<filter id="filter0_d_25_43" x="0.5" y="20.5" width="53" height="53" filterUnits="userSpaceOnUse" color-interpolation-filters="sRGB">
<feFlood flood-opacity="0" result="BackgroundImageFix"/>
<feColorMatrix in="SourceAlpha" type="matrix" values="0 0 0 0 0 0 0 0 0 0 0 0 0 0 0 0 0 0 127 0" result="hardAlpha"/>
<feOffset/>
<feGaussianBlur stdDeviation="3"/>
<feComposite in2="hardAlpha" operator="out"/>
<feColorMatrix type="matrix" values="0 0 0 0 0.921569 0 0 0 0 0.921569 0 0 0 0 0.92549 0 0 0 1 0"/>
<feBlend mode="normal" in2="BackgroundImageFix" result="effect1_dropShadow_25_43"/>
<feBlend mode="normal" in="SourceGraphic" in2="effect1_dropShadow_25_43" result="shape"/>
</filter>
<filter id="filter1_d_25_43" x="10.7632" y="0.5" width="62.7368" height="62.9167" filterUnits="userSpaceOnUse" color-interpolation-filters="sRGB">
<feFlood flood-opacity="0" result="BackgroundImageFix"/>
<feColorMatrix in="SourceAlpha" type="matrix" values="0 0 0 0 0 0 0 0 0 0 0 0 0 0 0 0 0 0 127 0" result="hardAlpha"/>
<feOffset/>
<feGaussianBlur stdDeviation="3"/>
<feComposite in2="hardAlpha" operator="out"/>
<feColorMatrix type="matrix" values="0 0 0 0 0.921569 0 0 0 0 0.921569 0 0 0 0 0.92549 0 0 0 1 0"/>
<feBlend mode="normal" in2="BackgroundImageFix" result="effect1_dropShadow_25_43"/>
<feBlend mode="normal" in="SourceGraphic" in2="effect1_dropShadow_25_43" result="shape"/>
</filter>
<filter id="filter2_d_25_43" x="13.8333" y="33.8334" width="26.3333" height="26.3334" filterUnits="userSpaceOnUse" color-interpolation-filters="sRGB">
<feFlood flood-opacity="0" result="BackgroundImageFix"/>
<feColorMatrix in="SourceAlpha" type="matrix" values="0 0 0 0 0 0 0 0 0 0 0 0 0 0 0 0 0 0 127 0" result="hardAlpha"/>
<feOffset/>
<feGaussianBlur stdDeviation="3"/>
<feComposite in2="hardAlpha" operator="out"/>
<feColorMatrix type="matrix" values="0 0 0 0 0.921569 0 0 0 0 0.921569 0 0 0 0 0.92549 0 0 0 1 0"/>
<feBlend mode="normal" in2="BackgroundImageFix" result="effect1_dropShadow_25_43"/>
<feBlend mode="normal" in="SourceGraphic" in2="effect1_dropShadow_25_43" result="shape"/>
</filter>
</defs>
</svg>
