<svg width="80" height="82" viewBox="0 0 80 82" fill="none" xmlns="http://www.w3.org/2000/svg">
<g filter="url(#filter0_d_29_142)">
<path fill-rule="evenodd" clip-rule="evenodd" d="M59.4826 64.7606L69.8045 65.4292L70.1986 65.4327L70.5963 65.394C71.1586 65.3018 71.69 65.0745 72.1452 64.7318C72.6003 64.389 72.9655 63.941 73.2095 63.4261C73.4534 62.9112 73.5689 62.3448 73.5459 61.7755C73.5228 61.2062 73.3621 60.6509 73.0774 60.1574L66.1586 48.1709C65.9541 48.4786 65.7445 48.7823 65.5299 49.0821C62.9058 52.7465 59.5267 55.812 55.6156 58.0689C51.7045 60.3258 47.3597 61.7176 42.8741 62.1559C42.5071 62.1918 42.1391 62.2213 41.7703 62.2443L48.6962 74.2343L48.9495 74.6214L49.2381 74.9522C49.6327 75.3505 50.1166 75.6488 50.6497 75.8225C51.1827 75.9961 51.7495 76.04 52.303 75.9505C52.8564 75.861 53.3805 75.6407 53.8317 75.308C54.2828 74.9752 54.6481 74.5396 54.897 74.0372L59.4826 64.7606ZM49.9691 74.269C50.2478 74.5439 50.5868 74.7503 50.9594 74.8716C51.3411 74.996 51.747 75.0274 52.1433 74.9633C52.5397 74.8992 52.915 74.7415 53.2381 74.5032C53.5609 74.2651 53.8223 73.9534 54.0006 73.5941M54.001 73.5932L58.8817 63.7195L69.8414 64.4295L70.1545 64.4323L70.4641 64.4022C70.8557 64.3331 71.2257 64.1724 71.5436 63.9329C71.8696 63.6875 72.1311 63.3666 72.3058 62.9979C72.4805 62.6292 72.5631 62.2236 72.5467 61.8159C72.5302 61.4082 72.4151 61.0105 72.2112 60.6571L66.0771 50.0301C63.4093 53.6487 60.0192 56.6823 56.1154 58.935C52.2118 61.1876 47.8894 62.6048 43.4217 63.104L49.5481 73.71L49.7485 74.016L49.9691 74.269M20.0637 64.7641L24.6528 74.0372L24.878 74.4384L25.1455 74.7904C25.5138 75.2135 25.9779 75.5425 26.4991 75.75C27.0202 75.9576 27.5834 76.0377 28.1418 75.9836C28.7002 75.9296 29.2376 75.743 29.7093 75.4393C30.181 75.1356 30.5733 74.7237 30.8537 74.2378L37.7725 62.2443C37.4039 62.2211 37.0361 62.1915 36.6693 62.1555C32.1847 61.7155 27.8414 60.325 23.932 58.067C20.0228 55.8091 16.6456 52.7432 14.0233 49.0789C13.8087 48.779 13.5991 48.4751 13.3948 48.1674L6.46894 60.1644L6.29298 60.5164L6.15221 60.8929C5.98666 61.4377 5.95561 62.0144 6.06173 62.5738C6.16785 63.1332 6.40797 63.6585 6.76153 64.1048C7.1151 64.5511 7.57156 64.905 8.09183 65.1363C8.6121 65.3675 9.18068 65.4693 9.74886 65.4327L20.0637 64.7641ZM9.68468 64.4348L20.6643 63.723L25.5375 73.5704L25.7161 73.8885L25.9199 74.1566C26.1804 74.4486 26.5053 74.6761 26.8691 74.821C27.2423 74.9696 27.6456 75.027 28.0455 74.9883C28.4453 74.9496 28.8302 74.8159 29.168 74.5985C29.5058 74.381 29.7867 74.086 29.9875 73.7381L36.1224 63.1035C31.6558 62.6029 27.3344 61.187 23.4319 58.933C19.53 56.6793 16.142 53.6454 13.4759 50.027L7.34997 60.6384L7.21111 60.9162L7.1008 61.2113C6.98945 61.5932 6.97 61.9963 7.04421 62.3874C7.1202 62.788 7.29216 63.1642 7.54536 63.4838C7.79855 63.8034 8.12544 64.0569 8.49802 64.2225C8.87061 64.3881 9.27779 64.461 9.68468 64.4348ZM39.7784 7.00014L38.9594 7.01379C32.8382 7.22604 27.0382 9.80636 22.782 14.2111C18.5262 18.6156 16.1464 24.5 16.1438 30.6244L16.1643 31.6191L16.2455 32.8539L16.3781 33.9523L16.4443 34.4124L16.6101 35.3292L16.8148 36.2537C16.9079 36.6364 17.0107 37.0167 17.123 37.3942L17.4476 38.3985L17.7187 39.1339L17.8909 39.5743L18.3359 40.5911C20.2297 44.6671 23.2463 48.1188 27.0321 50.5415C30.8209 52.9661 35.2229 54.2593 39.7211 54.2692C44.2193 54.2791 48.627 53.0054 52.4265 50.5975C56.2225 48.1919 59.2541 44.754 61.1658 40.6869L61.6884 39.4984L62.0833 38.4499C62.5702 37.0654 62.9269 35.6384 63.1486 34.1876L63.2301 33.5832L63.3184 32.7616L63.3792 31.9346L63.4027 31.2879L63.413 30.627C63.4112 24.5017 61.0313 18.6162 56.7748 14.2111C52.5186 9.80636 46.7187 7.22604 40.5975 7.01379L39.7784 7.00014ZM40.623 6.01408L39.7784 6L38.9338 6.01408C32.5502 6.23307 26.5013 8.92293 22.0629 13.5163C17.6245 18.1096 15.1437 24.2473 15.1438 30.6346L15.165 31.6622L15.2494 32.9467L15.3867 34.0834L15.457 34.5726L15.6295 35.5263L15.8406 36.48C15.9394 36.8863 16.0485 37.29 16.1679 37.6906L16.5023 38.7253L16.7838 39.489L16.9668 39.957L17.4243 41.0022C19.3979 45.2551 22.5439 48.8566 26.4931 51.3838C30.4422 53.9109 35.0304 55.2588 39.7189 55.2692C44.4074 55.2795 49.0015 53.9519 52.9618 51.4422C56.922 48.9325 60.0839 45.3449 62.0763 41.1008L62.6147 39.8761L63.0229 38.7922C63.5334 37.3428 63.907 35.8488 64.1385 34.3298L64.223 33.7034L64.3145 32.8517L64.3778 31.9895L64.4025 31.3138L64.413 30.6346C64.4131 24.2473 61.9323 18.1096 57.494 13.5163C53.0556 8.92293 47.0066 6.23307 40.623 6.01408Z" fill="#F5F5F5"/>
</g>
<defs>
<filter id="filter0_d_29_142" x="0" y="0" width="79.5487" height="82" filterUnits="userSpaceOnUse" color-interpolation-filters="sRGB">
<feFlood flood-opacity="0" result="BackgroundImageFix"/>
<feColorMatrix in="SourceAlpha" type="matrix" values="0 0 0 0 0 0 0 0 0 0 0 0 0 0 0 0 0 0 127 0" result="hardAlpha"/>
<feOffset/>
<feGaussianBlur stdDeviation="3"/>
<feComposite in2="hardAlpha" operator="out"/>
<feColorMatrix type="matrix" values="0 0 0 0 1 0 0 0 0 1 0 0 0 0 1 0 0 0 0.8 0"/>
<feBlend mode="normal" in2="BackgroundImageFix" result="effect1_dropShadow_29_142"/>
<feBlend mode="normal" in="SourceGraphic" in2="effect1_dropShadow_29_142" result="shape"/>
</filter>
</defs>
</svg>
