<svg width="72" height="73" viewBox="0 0 72 73" fill="none" xmlns="http://www.w3.org/2000/svg">
<g filter="url(#filter0_d_29_136)">
<path fill-rule="evenodd" clip-rule="evenodd" d="M54.6267 22.0939C55.7676 22.5405 56.9929 22.7301 58.2155 22.649C59.438 22.568 60.6276 22.2183 61.6996 21.6251C62.7716 21.0318 63.6995 20.2094 64.4174 19.2165C65.1352 18.2236 65.6253 17.0847 65.8528 15.8807C66.0802 14.6768 66.0393 13.4376 65.7331 12.2512C65.4269 11.0649 64.8629 9.96069 64.0812 9.01724C63.2995 8.07378 62.3194 7.3143 61.2107 6.79289C60.1019 6.27148 58.8919 6.00096 57.6667 6.0006C55.5509 6.00028 53.5143 6.80471 51.9698 8.25073C50.4254 9.69676 49.4888 11.6761 49.35 13.7873L49.3333 14.3339L49.35 14.8806C49.4056 15.7355 49.5934 16.5766 49.9067 17.3739L34.7233 32.5606C31.1069 30.064 26.711 28.9562 22.3433 29.4406L19.72 20.6906C20.77 19.8007 21.5832 18.6647 22.087 17.3838C22.5908 16.103 22.7696 14.7174 22.6073 13.3507C22.445 11.9839 21.9467 10.6787 21.1569 9.55147C20.3671 8.42428 19.3105 7.51025 18.0813 6.89103C16.8521 6.27181 15.4887 5.96668 14.1129 6.00288C12.737 6.03909 11.3915 6.41552 10.1966 7.09853C9.00172 7.78155 7.99459 8.74989 7.2652 9.91706C6.5358 11.0842 6.10686 12.4139 6.01667 13.7873L6 14.3339L6.02 14.9273C6.15651 16.8578 6.96125 18.6805 8.2959 20.0821C9.63055 21.4837 11.4118 22.3766 13.3333 22.6073L15.96 31.3539C13.0711 32.8368 10.6279 35.0604 8.88026 37.7972C7.13262 40.534 6.14325 43.686 6.01333 46.9306L6 47.6673L6.01333 48.4073C6.17468 52.4556 7.67253 56.3365 10.2728 59.4436C12.8732 62.5506 16.4295 64.7088 20.3861 65.5808C24.3427 66.4529 28.4768 65.9897 32.1423 64.2637C35.8078 62.5377 38.7984 59.646 40.6467 56.0406L49.39 58.6673C49.6193 60.5679 50.496 62.3317 51.8727 63.662C53.2495 64.9923 55.0423 65.808 56.9497 65.9719C58.8571 66.1359 60.7627 65.6381 62.3463 64.5623C63.9299 63.4864 65.0947 61.8982 65.645 60.0645C66.1953 58.2309 66.0974 56.2637 65.3679 54.4937C64.6384 52.7237 63.3217 51.2589 61.6392 50.3455C59.9567 49.4321 58.011 49.1259 56.1293 49.4783C54.2476 49.8307 52.5446 50.8203 51.3067 52.2806L42.56 49.6573C43.0444 45.2896 41.9366 40.8937 39.44 37.2773L54.6267 22.0939ZM7.01297 48.3782C7.16774 52.2019 8.58353 55.867 11.0397 58.8018C13.4982 61.7393 16.8605 63.7798 20.6013 64.6042C24.3421 65.4287 28.2507 64.9908 31.7163 63.359C35.1819 61.7271 38.0093 58.9932 39.7568 55.5844L40.1367 54.8433L50.3044 57.8978L50.3828 58.5475C50.5846 60.2201 51.3561 61.7722 52.5676 62.9428C53.7791 64.1135 55.3568 64.8313 57.0353 64.9756C58.7138 65.1199 60.3908 64.6818 61.7844 63.7351C63.1779 62.7884 64.203 61.3907 64.6872 59.7771C65.1715 58.1635 65.0854 56.4323 64.4434 54.8748C63.8014 53.3172 62.6427 52.0281 61.1621 51.2243C59.6815 50.4205 57.9693 50.1511 56.3134 50.4612C54.6575 50.7713 53.1588 51.6421 52.0695 52.9272L51.6463 53.4265L41.4742 50.3756L41.5661 49.547C42.024 45.4186 40.9768 41.2637 38.6171 37.8454L38.1435 37.1594L54.3821 20.9243L54.9912 21.1627C55.9952 21.5557 57.0735 21.7225 58.1493 21.6512C59.2251 21.5799 60.272 21.2722 61.2153 20.7501C62.1587 20.228 62.9753 19.5043 63.607 18.6306C64.2387 17.7569 64.67 16.7546 64.8701 15.6951C65.0703 14.6357 65.0343 13.5451 64.7649 12.5012C64.4954 11.4572 63.999 10.4855 63.3111 9.65524C62.6233 8.825 61.7608 8.15666 60.7851 7.69782C59.8095 7.23899 58.7447 7.00094 57.6665 7.0006M7.01297 48.3782L7.00016 47.6673L7.01297 46.9598C7.13756 43.896 8.07271 40.9199 9.72309 38.3354C11.3754 35.7478 13.6853 33.6456 16.4167 32.2436L17.1571 31.8635L14.1027 21.6925L13.4525 21.6144C11.7617 21.4114 10.1945 20.6258 9.02008 19.3925C7.84982 18.1636 7.14258 16.5667 7.01879 14.8746L7.00051 14.3323L7.01565 13.8358C7.09742 12.6333 7.47436 11.4693 8.11322 10.447C8.75509 9.4199 9.64136 8.56776 10.6929 7.96671C11.7444 7.36565 12.9284 7.0344 14.1392 7.00254C15.3499 6.97068 16.5497 7.23919 17.6314 7.78411C18.7131 8.32902 19.6429 9.13337 20.3379 10.1253C21.0329 11.1172 21.4714 12.2659 21.6143 13.4686C21.7571 14.6713 21.5998 15.8907 21.1564 17.0178C20.7131 18.1449 19.9974 19.1446 19.0735 19.9277L18.5742 20.3509L21.6249 30.5264L22.4536 30.4345C26.582 29.9766 30.7369 31.0238 34.1552 33.3835L34.8412 33.8571L51.0769 17.6178L50.8374 17.0083C50.564 16.3123 50.3992 15.5784 50.349 14.8323L50.3338 14.3339L50.349 13.8359C50.475 11.9844 51.2983 10.2493 52.6533 8.98072C54.0124 7.70825 55.8047 7.00035 57.6665 7.0006" fill="#F5F5F5"/>
</g>
<defs>
<filter id="filter0_d_29_136" x="0" y="0" width="71.9976" height="72.0105" filterUnits="userSpaceOnUse" color-interpolation-filters="sRGB">
<feFlood flood-opacity="0" result="BackgroundImageFix"/>
<feColorMatrix in="SourceAlpha" type="matrix" values="0 0 0 0 0 0 0 0 0 0 0 0 0 0 0 0 0 0 127 0" result="hardAlpha"/>
<feOffset/>
<feGaussianBlur stdDeviation="3"/>
<feComposite in2="hardAlpha" operator="out"/>
<feColorMatrix type="matrix" values="0 0 0 0 0.960784 0 0 0 0 0.960784 0 0 0 0 0.960784 0 0 0 0.8 0"/>
<feBlend mode="normal" in2="BackgroundImageFix" result="effect1_dropShadow_29_136"/>
<feBlend mode="normal" in="SourceGraphic" in2="effect1_dropShadow_29_136" result="shape"/>
</filter>
</defs>
</svg>
